<svg width="44" height="44" viewBox="0 0 44 44" fill="none" xmlns="http://www.w3.org/2000/svg">
<path d="M33.5 39.6667H4.33329V10.5H23.0833V6.33337H4.33329C2.04163 6.33337 0.166626 8.20837 0.166626 10.5V39.6667C0.166626 41.9584 2.04163 43.8334 4.33329 43.8334H33.5C35.7916 43.8334 37.6666 41.9584 37.6666 39.6667V20.9167H33.5V39.6667ZM17.2708 33.0625L13.1875 28.1459L7.45829 35.5H30.375L23 25.6875L17.2708 33.0625ZM37.6666 6.33337V0.083374H33.5V6.33337H27.25C27.2708 6.35421 27.25 10.5 27.25 10.5H33.5V16.7292C33.5208 16.75 37.6666 16.7292 37.6666 16.7292V10.5H43.9166V6.33337H37.6666Z" fill="#717676"/>
</svg>
