<svg width="10" height="13" viewBox="0 0 10 13" fill="none" xmlns="http://www.w3.org/2000/svg">
<path d="M5 7C4.60444 7 4.21776 6.8827 3.88886 6.66294C3.55996 6.44318 3.30362 6.13082 3.15224 5.76537C3.00087 5.39991 2.96126 4.99778 3.03843 4.60982C3.1156 4.22186 3.30608 3.86549 3.58579 3.58579C3.86549 3.30608 4.22186 3.1156 4.60982 3.03843C4.99778 2.96126 5.39992 3.00087 5.76537 3.15224C6.13082 3.30362 6.44318 3.55996 6.66294 3.88886C6.8827 4.21776 7 4.60444 7 5C6.99936 5.53024 6.78845 6.03858 6.41351 6.41351C6.03858 6.78845 5.53024 6.99936 5 7ZM5 3.8C4.76266 3.8 4.53066 3.87038 4.33332 4.00224C4.13598 4.13409 3.98217 4.32151 3.89135 4.54078C3.80052 4.76005 3.77676 5.00133 3.82306 5.23411C3.86936 5.46689 3.98365 5.68071 4.15147 5.84853C4.3193 6.01635 4.53312 6.13064 4.76589 6.17694C4.99867 6.22324 5.23995 6.19948 5.45922 6.10866C5.67849 6.01783 5.86591 5.86402 5.99776 5.66668C6.12962 5.46935 6.2 5.23734 6.2 5C6.19968 4.68184 6.07315 4.3768 5.84818 4.15182C5.6232 3.92685 5.31816 3.80032 5 3.8Z" fill="#6F7373"/>
<path d="M5 13L1.16546 8.38082C1.11218 8.31146 1.05945 8.24166 1.00728 8.17143C0.352269 7.29011 -0.00158236 6.21364 5.31949e-06 5.10714C5.31949e-06 3.75264 0.526789 2.45362 1.46447 1.49585C2.40215 0.538073 3.67392 0 5 0C6.32608 0 7.59785 0.538073 8.53553 1.49585C9.47321 2.45362 10 3.75264 10 5.10714C10.0016 6.21314 9.64789 7.28912 8.99318 8.17004L8.99272 8.17143C8.99272 8.17143 8.85636 8.35436 8.83591 8.37896L5 13ZM1.73273 7.61196C1.73364 7.61196 1.83909 7.75496 1.86319 7.78561L5 11.5644L8.14091 7.7805C8.16091 7.75496 8.26727 7.61104 8.26772 7.61057C8.80279 6.89052 9.09196 6.01112 9.09091 5.10714C9.09091 3.99892 8.6599 2.93608 7.89271 2.15245C7.12551 1.36881 6.08498 0.928571 5 0.928571C3.91502 0.928571 2.87449 1.36881 2.10729 2.15245C1.3401 2.93608 0.909095 3.99892 0.909095 5.10714C0.908142 6.01168 1.19718 6.89158 1.73273 7.61196Z" fill="#6F7373"/>
</svg>
