<svg width="33" height="24" viewBox="0 0 33 24" fill="none" xmlns="http://www.w3.org/2000/svg">
<path d="M33 15.0443C33 17.45 32.5206 19.52 31.6131 21.0314C30.4482 22.9729 28.6375 24 26.3772 24C22.0631 24 19.1628 18.5643 16.0932 12.81C13.8628 8.63 11.0948 3.42857 8.81896 3.42857C7.72228 3.42857 6.3781 4.76714 5.31129 6.92143C4.09103 9.45571 3.4431 12.2294 3.41379 15.0443C3.41379 16.8014 3.73241 18.2986 4.30991 19.2614C4.84616 20.1557 5.58155 20.5714 6.62276 20.5714C8.57858 20.5714 10.9796 16.4286 11.7691 15.0729C11.9971 14.68 12.3712 14.3941 12.8091 14.2783C13.247 14.1624 13.7127 14.226 14.1039 14.455C14.4951 14.684 14.7797 15.0598 14.8951 15.4995C15.0105 15.9393 14.9472 16.4071 14.7191 16.8C13.4518 18.9829 12.3679 20.5143 11.3053 21.6257C9.77909 23.2229 8.25 24 6.62276 24C4.36254 24 2.55181 22.9729 1.38685 21.0314C0.479353 19.52 0 17.45 0 15.0443C0 8.76286 3.35405 0 8.81896 0C13.1331 0 16.0334 5.43572 19.103 11.19C21.3362 15.37 24.1056 20.5714 26.3772 20.5714C27.4184 20.5714 28.1538 20.1557 28.6901 19.2614C29.2676 18.2986 29.5862 16.8014 29.5862 15.0443C29.5573 12.2295 28.9099 9.45582 27.6901 6.92143C26.6233 4.76714 25.2791 3.42857 24.181 3.42857C23.3674 3.42857 22.3874 4.14286 21.2665 5.54714C20.9836 5.90215 20.5718 6.12974 20.1218 6.17984C19.6718 6.22994 19.2204 6.09845 18.8669 5.81429C18.5134 5.53013 18.2868 5.11658 18.2369 4.66461C18.187 4.21265 18.318 3.7593 18.6009 3.40429C20.4287 1.11429 22.2537 0 24.181 0C26.6916 0 29.0172 1.91571 30.7455 5.39429C32.1952 8.40504 32.965 11.7002 33 15.0443Z" fill="url(#paint0_linear_151_91)"/>
<defs>
<linearGradient id="paint0_linear_151_91" x1="16.5" y1="0" x2="16.5" y2="24" gradientUnits="userSpaceOnUse">
<stop stop-color="#8515CD"/>
<stop offset="1" stop-color="#0A41CD"/>
</linearGradient>
</defs>
</svg>
