<svg width="42" height="32" viewBox="0 0 42 32" fill="none" xmlns="http://www.w3.org/2000/svg">
<path d="M41.8438 19.8291C41.8438 22.8551 41.2382 25.4587 40.0918 27.3598C38.6202 29.8018 36.3327 31.0938 33.4775 31.0938C28.0276 31.0938 24.3638 24.2566 20.4861 17.0188C17.6686 11.7612 14.1719 5.21875 11.2969 5.21875C9.91148 5.21875 8.21344 6.90242 6.86578 9.61211C5.32427 12.7998 4.50577 16.2885 4.46875 19.8291C4.46875 22.0393 4.87125 23.9224 5.60078 25.1335C6.2782 26.2584 7.20719 26.7812 8.5225 26.7812C10.9932 26.7812 14.0263 21.5703 15.0236 19.8651C15.3117 19.3709 15.7843 19.0114 16.3374 18.8656C16.8906 18.7199 17.479 18.7998 17.9732 19.0879C18.4674 19.376 18.8269 19.8486 18.9726 20.4018C19.1184 20.9549 19.0384 21.5433 18.7503 22.0375C17.1493 24.7831 15.7801 26.7094 14.4378 28.1073C12.5098 30.1163 10.5781 31.0938 8.5225 31.0938C5.66727 31.0938 3.37984 29.8018 1.9082 27.3598C0.761797 25.4587 0.15625 22.8551 0.15625 19.8291C0.15625 11.9283 4.39328 0.90625 11.2969 0.90625C16.7468 0.90625 20.4106 7.74336 24.2883 14.9812C27.1094 20.2388 30.6079 26.7812 33.4775 26.7812C34.7928 26.7812 35.7218 26.2584 36.3992 25.1335C37.1287 23.9224 37.5312 22.0393 37.5312 19.8291C37.4948 16.2887 36.6769 12.7999 35.136 9.61211C33.7884 6.90242 32.0903 5.21875 30.7031 5.21875C29.6753 5.21875 28.4373 6.11719 27.0213 7.88352C26.6639 8.33005 26.1437 8.61632 25.5753 8.67933C25.0068 8.74235 24.4365 8.57695 23.99 8.21953C23.5435 7.86211 23.2572 7.34194 23.1942 6.77346C23.1312 6.20497 23.2966 5.63474 23.654 5.1882C25.963 2.30781 28.2684 0.90625 30.7031 0.90625C33.8746 0.90625 36.8125 3.31586 38.9957 7.69125C40.827 11.4782 41.7995 15.6228 41.8438 19.8291Z" fill="white"/>
</svg>
