<svg width="24" height="24" viewBox="0 0 24 24" fill="none" xmlns="http://www.w3.org/2000/svg">
<g clip-path="url(#clip0_151_68)">
<path d="M0.800049 0.800049L1.76005 4.00005M1.76005 4.00005L5.60005 16.8H23.2V7.20005C23.2 6.35136 22.8629 5.53742 22.2628 4.93731C21.6627 4.33719 20.8487 4.00005 20 4.00005H1.76005ZM20 23.2C19.5757 23.2 19.1687 23.0315 18.8687 22.7314C18.5686 22.4314 18.4 22.0244 18.4 21.6C18.4 21.1757 18.5686 20.7687 18.8687 20.4687C19.1687 20.1686 19.5757 20 20 20C20.4244 20 20.8314 20.1686 21.1314 20.4687C21.4315 20.7687 21.6 21.1757 21.6 21.6C21.6 22.0244 21.4315 22.4314 21.1314 22.7314C20.8314 23.0315 20.4244 23.2 20 23.2ZM7.20005 21.6C7.20005 21.1757 7.36862 20.7687 7.66868 20.4687C7.96874 20.1686 8.3757 20 8.80005 20C9.2244 20 9.63136 20.1686 9.93142 20.4687C10.2315 20.7687 10.4 21.1757 10.4 21.6C10.4 22.0244 10.2315 22.4314 9.93142 22.7314C9.63136 23.0315 9.2244 23.2 8.80005 23.2C8.3757 23.2 7.96874 23.0315 7.66868 22.7314C7.36862 22.4314 7.20005 22.0244 7.20005 21.6Z" stroke="#615D5D" stroke-width="1.5"/>
</g>
<defs>
<clipPath id="clip0_151_68">
<rect width="24" height="24" fill="white"/>
</clipPath>
</defs>
</svg>
