<svg width="30" height="30" viewBox="0 0 30 30" fill="none" xmlns="http://www.w3.org/2000/svg">
<path d="M28.5938 17.4973C28.5938 19.4707 28.1988 21.1688 27.4512 22.4086C26.4914 24.0012 24.9996 24.8438 23.1375 24.8438C19.5832 24.8438 17.1938 20.3848 14.6648 15.6645C12.8273 12.2355 10.5469 7.96875 8.67188 7.96875C7.76836 7.96875 6.66094 9.0668 5.78203 10.834C4.7767 12.9129 4.24289 15.1882 4.21875 17.4973C4.21875 18.9387 4.48125 20.1668 4.95703 20.9566C5.39883 21.6902 6.00469 22.0312 6.8625 22.0312C8.47383 22.0312 10.452 18.6328 11.1023 17.5207C11.2902 17.1984 11.5984 16.9639 11.9592 16.8689C12.3199 16.7738 12.7037 16.826 13.026 17.0139C13.3483 17.2017 13.5827 17.51 13.6778 17.8707C13.7728 18.2315 13.7207 18.6152 13.5328 18.9375C12.4887 20.7281 11.5957 21.9844 10.7203 22.8961C9.46289 24.2063 8.20312 24.8438 6.8625 24.8438C5.00039 24.8438 3.50859 24.0012 2.54883 22.4086C1.80117 21.1688 1.40625 19.4707 1.40625 17.4973C1.40625 12.3445 4.16953 5.15625 8.67188 5.15625C12.2262 5.15625 14.6156 9.61523 17.1445 14.3355C18.9844 17.7645 21.266 22.0312 23.1375 22.0312C23.9953 22.0312 24.6012 21.6902 25.043 20.9566C25.5187 20.1668 25.7812 18.9387 25.7812 17.4973C25.7575 15.1883 25.2241 12.913 24.2191 10.834C23.3402 9.0668 22.2328 7.96875 21.3281 7.96875C20.6578 7.96875 19.8504 8.55469 18.927 9.70664C18.6939 9.99786 18.3546 10.1846 17.9839 10.2257C17.6131 10.2667 17.2412 10.1589 16.95 9.92578C16.6588 9.69268 16.4721 9.35344 16.431 8.98269C16.3899 8.61194 16.4978 8.24005 16.7309 7.94883C18.2367 6.07031 19.7402 5.15625 21.3281 5.15625C23.3965 5.15625 25.3125 6.72773 26.7363 9.58125C27.9307 12.051 28.5649 14.754 28.5938 17.4973Z" fill="white"/>
</svg>
