<svg width="16" height="12" viewBox="0 0 16 12" fill="none" xmlns="http://www.w3.org/2000/svg">
<path d="M0.6875 0.375V11.625H15.3125V0.375H0.6875ZM1.8125 1.5H14.1875V10.5H12.2716C12.2277 10.4229 12.2474 10.3177 12.1833 10.2536C11.9713 10.041 11.6692 9.9375 11.375 9.9375C11.0808 9.9375 10.7793 10.041 10.5661 10.2542C10.5026 10.3177 10.5223 10.4229 10.4784 10.5H5.52163C5.47775 10.4229 5.49744 10.3177 5.43388 10.2536C5.22012 10.041 4.91919 9.9375 4.625 9.9375C4.33081 9.9375 4.02931 10.041 3.81613 10.2542C3.75256 10.3177 3.77225 10.4229 3.72837 10.5H1.8125V1.5ZM5.75 2.625C4.5125 2.625 3.5 3.6375 3.5 4.875C3.5 5.50106 3.76831 6.06581 4.18569 6.47475C3.80298 6.7333 3.48922 7.08142 3.27169 7.48884C3.05415 7.89626 2.93943 8.35065 2.9375 8.8125H4.0625C4.0625 8.36495 4.24029 7.93572 4.55676 7.61926C4.87322 7.30279 5.30245 7.125 5.75 7.125C6.19755 7.125 6.62678 7.30279 6.94324 7.61926C7.25971 7.93572 7.4375 8.36495 7.4375 8.8125H8.5625C8.56057 8.35065 8.44585 7.89626 8.22831 7.48884C8.01078 7.08142 7.69702 6.7333 7.31431 6.47475C7.73169 6.06581 8 5.50163 8 4.875C8 3.6375 6.9875 2.625 5.75 2.625ZM5.75 3.75C6.37831 3.75 6.875 4.24669 6.875 4.875C6.875 5.50331 6.37831 6 5.75 6C5.12169 6 4.625 5.50331 4.625 4.875C4.625 4.24669 5.12169 3.75 5.75 3.75ZM9.6875 4.3125V5.4375H13.0625V4.3125H9.6875ZM9.6875 6.5625V7.6875H13.0625V6.5625H9.6875Z" fill="#717676"/>
</svg>
