<svg width="24" height="24" viewBox="0 0 24 24" fill="none" xmlns="http://www.w3.org/2000/svg">
<path d="M18.1324 16V16.3233L18.3674 16.5453L20.1724 18.25H3.82759L5.63258 16.5453L5.86761 16.3233V16V10.5C5.86761 7.83566 7.8647 5.51588 10.5697 4.93313L11.1618 4.80558V4.19995V3.5C11.1618 3.10394 11.4731 2.75 12 2.75C12.5269 2.75 12.8382 3.10393 12.8382 3.5V4.19995V4.80558L13.4303 4.93313C16.1352 5.51588 18.1324 7.83567 18.1324 10.5V16ZM13.0896 20.75C12.8458 21.0468 12.4592 21.25 12 21.25C11.5408 21.25 11.1542 21.0468 10.9104 20.75H13.0896Z" stroke="white" stroke-width="1.5"/>
</svg>
