<svg width="91" height="71" viewBox="0 0 91 71" fill="none" xmlns="http://www.w3.org/2000/svg">
<path d="M61 33.0443C61 35.45 60.5206 37.52 59.6131 39.0314C58.4482 40.9729 56.6375 42 54.3772 42C50.0631 42 47.1628 36.5643 44.0932 30.81C41.8628 26.63 39.0948 21.4286 36.819 21.4286C35.7223 21.4286 34.3781 22.7671 33.3113 24.9214C32.091 27.4557 31.4431 30.2294 31.4138 33.0443C31.4138 34.8014 31.7324 36.2986 32.3099 37.2614C32.8462 38.1557 33.5816 38.5714 34.6228 38.5714C36.5786 38.5714 38.9796 34.4286 39.7691 33.0729C39.9971 32.68 40.3712 32.3941 40.8091 32.2783C41.247 32.1624 41.7127 32.226 42.1039 32.455C42.4951 32.684 42.7797 33.0598 42.8951 33.4995C43.0105 33.9393 42.9472 34.4071 42.7191 34.8C41.4518 36.9829 40.3679 38.5143 39.3053 39.6257C37.7791 41.2229 36.25 42 34.6228 42C32.3625 42 30.5518 40.9729 29.3869 39.0314C28.4794 37.52 28 35.45 28 33.0443C28 26.7629 31.3541 18 36.819 18C41.1331 18 44.0334 23.4357 47.103 29.19C49.3362 33.37 52.1056 38.5714 54.3772 38.5714C55.4184 38.5714 56.1538 38.1557 56.6901 37.2614C57.2676 36.2986 57.5862 34.8014 57.5862 33.0443C57.5573 30.2295 56.9099 27.4558 55.6901 24.9214C54.6233 22.7671 53.2791 21.4286 52.181 21.4286C51.3674 21.4286 50.3874 22.1429 49.2665 23.5471C48.9836 23.9022 48.5718 24.1297 48.1218 24.1798C47.6718 24.2299 47.2204 24.0984 46.8669 23.8143C46.5134 23.5301 46.2868 23.1166 46.2369 22.6646C46.187 22.2127 46.318 21.7593 46.6009 21.4043C48.4287 19.1143 50.2537 18 52.181 18C54.6916 18 57.0172 19.9157 58.7455 23.3943C60.1952 26.405 60.965 29.7002 61 33.0443Z" fill="url(#paint0_linear_151_89)"/>
<path d="M1.99868 62.694C1.67601 62.694 1.41201 62.5913 1.20668 62.386C1.00135 62.1807 0.89868 61.8947 0.89868 61.528C0.89868 61.3227 0.94268 61.0953 1.03068 60.846C1.10401 60.582 1.23601 60.3033 1.42668 60.01C1.76401 59.482 2.19668 58.8953 2.72468 58.25C3.26735 57.59 3.83935 56.9373 4.44068 56.292C5.04201 55.6467 5.60668 55.06 6.13468 54.532C6.67735 53.9893 7.11001 53.5713 7.43268 53.278C7.57935 52.838 7.71868 52.3833 7.85068 51.914C7.99735 51.4447 8.14401 50.9607 8.29068 50.462C7.88001 50.8433 7.41068 51.1293 6.88268 51.32C6.36935 51.5107 5.88535 51.6207 5.43068 51.65H5.40868C5.26201 51.65 5.18868 51.5987 5.18868 51.496C5.18868 51.3787 5.27668 51.3127 5.45268 51.298C5.87801 51.254 6.31801 51.0927 6.77268 50.814C7.22735 50.5207 7.64535 50.154 8.02668 49.714C8.42268 49.2593 8.72335 48.7753 8.92868 48.262C8.95801 48.174 9.05335 48.108 9.21468 48.064C9.39068 48.02 9.57401 47.998 9.76468 47.998C9.92601 47.998 10.0653 48.02 10.1827 48.064C10.3147 48.0933 10.366 48.1593 10.3367 48.262C10.0727 48.9367 9.81601 49.5893 9.56668 50.22C9.31735 50.836 9.07535 51.4373 8.84068 52.024C9.70601 51.2907 10.5127 50.682 11.2607 50.198C12.0233 49.6993 12.6393 49.4353 13.1087 49.406C13.9447 49.362 14.5973 49.5013 15.0667 49.824C15.5507 50.1467 15.888 50.5793 16.0787 51.122C16.284 51.65 16.3867 52.2147 16.3867 52.816C16.3867 52.9627 16.3793 53.102 16.3647 53.234C16.3647 53.366 16.3573 53.498 16.3427 53.63C16.2693 54.3047 16.1227 55.0747 15.9027 55.94C15.6827 56.8053 15.448 57.612 15.1987 58.36C15.1693 58.4333 15.1253 58.5653 15.0667 58.756C15.008 58.932 15.0007 59.02 15.0447 59.02C15.0593 59.02 15.1327 58.9247 15.2647 58.734C15.6313 58.1327 15.9833 57.546 16.3207 56.974C16.6727 56.3873 17.0467 55.786 17.4427 55.17C18.0293 54.2607 18.6673 53.344 19.3567 52.42C20.0607 51.496 20.7647 50.6673 21.4687 49.934C21.7473 49.6407 22.0333 49.4207 22.3267 49.274C22.6347 49.1273 22.9207 49.054 23.1847 49.054C23.478 49.054 23.72 49.1567 23.9107 49.362C24.116 49.5527 24.2187 49.8533 24.2187 50.264C24.2187 50.3667 24.204 50.484 24.1747 50.616C24.16 50.7333 24.138 50.8653 24.1087 51.012C23.9327 51.716 23.7273 52.3613 23.4927 52.948C23.258 53.5347 23.0233 54.114 22.7887 54.686C22.554 55.2433 22.3413 55.83 22.1507 56.446C21.9747 57.062 21.85 57.744 21.7767 58.492C21.762 58.624 21.7473 58.7487 21.7327 58.866C21.7327 58.9833 21.7327 59.0933 21.7327 59.196C21.7327 59.6947 21.806 60.0613 21.9527 60.296C22.0993 60.516 22.29 60.626 22.5247 60.626C22.8033 60.626 23.126 60.5087 23.4927 60.274C23.874 60.0247 24.2553 59.724 24.6367 59.372C25.018 59.0053 25.3627 58.6533 25.6707 58.316C25.9787 57.964 26.206 57.6853 26.3527 57.48C26.382 57.436 26.426 57.414 26.4847 57.414C26.5433 57.414 26.5947 57.436 26.6387 57.48C26.6827 57.524 26.6827 57.5827 26.6387 57.656C26.448 57.9493 26.1767 58.294 25.8247 58.69C25.4873 59.0713 25.128 59.4453 24.7467 59.812C24.38 60.164 24.05 60.45 23.7567 60.67C23.5367 60.8313 23.28 60.9633 22.9867 61.066C22.708 61.1687 22.4293 61.22 22.1507 61.22C21.828 61.22 21.5347 61.1393 21.2707 60.978C21.0067 60.8167 20.8233 60.538 20.7207 60.142C20.6767 59.9953 20.6473 59.8413 20.6327 59.68C20.618 59.5187 20.6107 59.35 20.6107 59.174C20.6107 58.558 20.6987 57.876 20.8747 57.128C21.0507 56.3653 21.2707 55.61 21.5347 54.862C21.7987 54.0993 22.048 53.41 22.2827 52.794C22.532 52.1633 22.7227 51.6647 22.8547 51.298C22.9573 51.0927 23.0087 50.902 23.0087 50.726C23.0087 50.418 22.8767 50.264 22.6127 50.264C22.3927 50.264 22.136 50.3887 21.8427 50.638C21.4173 51.0047 20.948 51.4813 20.4347 52.068C19.936 52.6547 19.4227 53.3 18.8947 54.004C18.3813 54.708 17.8753 55.434 17.3767 56.182C16.8927 56.9153 16.4453 57.6267 16.0347 58.316C15.6387 58.9907 15.316 59.592 15.0667 60.12C14.964 60.34 14.8467 60.45 14.7147 60.45C14.612 60.45 14.5093 60.384 14.4067 60.252C14.3187 60.12 14.2453 59.9807 14.1867 59.834C14.1427 59.6727 14.1353 59.5627 14.1647 59.504C14.3553 59.0347 14.5313 58.4627 14.6927 57.788C14.854 57.0987 14.986 56.3727 15.0887 55.61C15.1913 54.8327 15.2427 54.092 15.2427 53.388C15.2427 52.4493 15.1253 51.6573 14.8907 51.012C14.656 50.352 14.2453 50.022 13.6587 50.022C13.2773 50.022 12.7933 50.1833 12.2067 50.506C11.62 50.8287 10.982 51.2613 10.2927 51.804C9.61801 52.3467 8.92135 52.948 8.20268 53.608C8.07068 53.9307 7.87268 54.4 7.60868 55.016C7.35935 55.632 7.05868 56.314 6.70668 57.062C6.36935 57.81 5.98801 58.558 5.56268 59.306C5.15201 60.0393 4.72668 60.6847 4.28668 61.242C3.89068 61.7407 3.49468 62.1073 3.09868 62.342C2.70268 62.5767 2.33601 62.694 1.99868 62.694ZM2.10868 61.924C2.49001 61.924 2.87868 61.7187 3.27468 61.308C3.68535 60.912 4.08868 60.406 4.48468 59.79C4.89535 59.1593 5.26935 58.5067 5.60668 57.832C5.94401 57.1573 6.23001 56.534 6.46468 55.962C6.71401 55.39 6.89001 54.9647 6.99268 54.686C6.58201 55.082 6.14935 55.522 5.69468 56.006C5.24001 56.4753 4.79268 56.9593 4.35268 57.458C3.92735 57.942 3.53868 58.3967 3.18668 58.822C2.83468 59.2473 2.55601 59.5993 2.35068 59.878C2.11601 60.2007 1.94001 60.494 1.82268 60.758C1.72001 61.0073 1.66868 61.2273 1.66868 61.418C1.66868 61.7553 1.81535 61.924 2.10868 61.924ZM40.9547 65.004C40.808 65.004 40.6613 64.9967 40.5147 64.982C40.368 64.9673 40.214 64.9453 40.0527 64.916C39.0553 64.7253 38.1533 64.3953 37.3467 63.926C36.54 63.4567 35.814 62.9067 35.1687 62.276C34.538 61.66 33.9587 61.0073 33.4307 60.318C32.9173 59.6287 32.448 58.9687 32.0227 58.338C31.5973 57.6927 31.2013 57.128 30.8347 56.644C30.8053 56.5707 30.7687 56.5487 30.7247 56.578C30.6953 56.6073 30.6807 56.622 30.6807 56.622C30.358 57.238 30.0573 57.8173 29.7787 58.36C29.5147 58.888 29.3167 59.3133 29.1847 59.636C29.0673 59.9587 29.0087 60.186 29.0087 60.318C29.0087 60.5233 29.0893 60.626 29.2507 60.626C29.456 60.626 29.676 60.4867 29.9107 60.208C30.072 60.0173 30.2187 59.8413 30.3507 59.68C30.4973 59.504 30.622 59.4307 30.7247 59.46C30.7393 59.4747 30.7467 59.4967 30.7467 59.526C30.7467 59.5993 30.6953 59.702 30.5927 59.834C30.49 59.9513 30.4313 60.0173 30.4167 60.032C30.314 60.1787 30.1747 60.3767 29.9987 60.626C29.8373 60.8753 29.6613 61.0953 29.4707 61.286C29.2947 61.4913 29.104 61.594 28.8987 61.594C28.8693 61.594 28.7813 61.5793 28.6347 61.55C28.5027 61.5207 28.3707 61.484 28.2387 61.44C28.1213 61.396 28.0553 61.3447 28.0407 61.286C28.0113 61.0073 28.0773 60.6187 28.2387 60.12C28.4147 59.6067 28.6493 59.042 28.9427 58.426C29.236 57.81 29.5367 57.2087 29.8447 56.622C29.61 56.5633 29.4413 56.512 29.3387 56.468C29.192 56.3653 29.1187 56.226 29.1187 56.05C29.1187 55.9033 29.1773 55.7713 29.2947 55.654C29.412 55.5367 29.588 55.478 29.8227 55.478C29.896 55.478 29.984 55.4927 30.0867 55.522C30.1893 55.5513 30.27 55.6027 30.3287 55.676C30.578 55.236 30.798 54.8327 30.9887 54.466C31.194 54.0993 31.3407 53.8133 31.4287 53.608C31.5167 53.4467 31.5753 53.3147 31.6047 53.212C31.634 53.0947 31.6487 53.0067 31.6487 52.948C31.6487 52.86 31.634 52.7867 31.6047 52.728C31.634 52.552 31.7367 52.3173 31.9127 52.024C32.1033 51.7307 32.338 51.4373 32.6167 51.144C32.8953 50.8507 33.196 50.6087 33.5187 50.418C33.8413 50.2127 34.142 50.11 34.4207 50.11C34.5087 50.11 34.6407 50.1393 34.8167 50.198C35.0073 50.242 35.1833 50.3153 35.3447 50.418C35.5207 50.5207 35.6307 50.6673 35.6747 50.858C35.6893 50.902 35.6967 50.946 35.6967 50.99C35.6967 51.034 35.682 51.056 35.6527 51.056C35.6233 51.056 35.5793 51.0487 35.5207 51.034C35.4767 51.0047 35.44 50.99 35.4107 50.99C35 50.99 34.538 51.2393 34.0247 51.738C33.526 52.222 33.0127 52.8453 32.4847 53.608C31.9713 54.3707 31.4873 55.1627 31.0327 55.984C31.106 55.9987 31.1867 56.0207 31.2747 56.05C31.3773 56.0647 31.4947 56.072 31.6267 56.072C31.6853 56.072 31.7367 56.072 31.7807 56.072C31.8393 56.072 31.898 56.0647 31.9567 56.05C32.8953 55.9473 33.8487 55.764 34.8167 55.5C35.7993 55.236 36.716 54.8913 37.5667 54.466C38.4173 54.0407 39.1213 53.542 39.6787 52.97C40.192 52.4273 40.4487 51.87 40.4487 51.298C40.4487 50.8727 40.2873 50.4767 39.9647 50.11C39.642 49.7433 39.136 49.4647 38.4467 49.274C38.036 49.1567 37.5667 49.0687 37.0387 49.01C36.5253 48.9513 35.968 48.922 35.3667 48.922C34.428 48.922 33.46 49.0027 32.4627 49.164C31.48 49.3253 30.556 49.5747 29.6907 49.912C28.8253 50.2347 28.0993 50.6453 27.5127 51.144C26.926 51.6427 26.574 52.2367 26.4567 52.926C26.4127 53.278 26.4787 53.5567 26.6547 53.762C26.8307 53.9673 27.0433 54.1287 27.2927 54.246C27.5567 54.3487 27.762 54.444 27.9087 54.532C28.0113 54.62 28.0627 54.6933 28.0627 54.752C28.0627 54.8547 27.9673 54.8913 27.7767 54.862C27.5713 54.818 27.3147 54.7153 27.0067 54.554C26.7133 54.3927 26.4493 54.1727 26.2147 53.894C25.9947 53.6007 25.8847 53.2633 25.8847 52.882C25.8847 52.8233 25.8847 52.7647 25.8847 52.706C25.8993 52.6473 25.914 52.5887 25.9287 52.53C25.9287 52.5153 25.9213 52.4713 25.9067 52.398C25.9067 52.31 25.9067 52.2367 25.9067 52.178C25.9947 51.7233 26.2147 51.298 26.5667 50.902C26.9333 50.4913 27.344 50.132 27.7987 49.824C28.268 49.5013 28.7007 49.2447 29.0967 49.054C29.786 48.7167 30.6147 48.4527 31.5827 48.262C32.5507 48.0567 33.5627 47.954 34.6187 47.954C35.264 47.954 35.902 47.998 36.5327 48.086C37.178 48.174 37.8013 48.3133 38.4027 48.504C39.2387 48.7827 39.884 49.2153 40.3387 49.802C40.808 50.374 41.0207 50.9753 40.9767 51.606C40.9327 52.2073 40.72 52.75 40.3387 53.234C39.972 53.718 39.4953 54.1433 38.9087 54.51C38.3367 54.862 37.6987 55.17 36.9947 55.434C36.3053 55.6833 35.6087 55.8887 34.9047 56.05C34.3327 56.1673 33.7313 56.2627 33.1007 56.336C32.47 56.4093 31.876 56.4607 31.3187 56.49C31.9493 57.2673 32.5727 58.052 33.1887 58.844C33.8193 59.6213 34.4867 60.3547 35.1907 61.044C35.9093 61.7333 36.694 62.32 37.5447 62.804C38.3953 63.3027 39.356 63.6547 40.4267 63.86C40.6467 63.904 40.874 63.926 41.1087 63.926C41.49 63.926 41.864 63.8673 42.2307 63.75C42.612 63.6327 42.9273 63.4493 43.1767 63.2C43.426 62.9507 43.5507 62.6207 43.5507 62.21C43.5507 62.1367 43.5433 62.0633 43.5287 61.99C43.5287 61.9167 43.5213 61.8433 43.5067 61.77C43.5067 61.7407 43.4993 61.7187 43.4847 61.704C43.4847 61.6893 43.4847 61.6747 43.4847 61.66C43.4847 61.528 43.536 61.462 43.6387 61.462C43.7853 61.462 43.8807 61.572 43.9247 61.792C43.9687 62.012 43.9907 62.2173 43.9907 62.408C43.9907 62.628 43.9687 62.8333 43.9247 63.024C43.8953 63.2147 43.8513 63.3907 43.7927 63.552C43.6607 63.9627 43.3233 64.3073 42.7807 64.586C42.2527 64.8647 41.644 65.004 40.9547 65.004ZM38.0086 63.618C37.9646 63.6473 37.9206 63.662 37.8766 63.662C37.8179 63.662 37.7812 63.6327 37.7666 63.574C37.7666 63.53 37.7666 63.5007 37.7666 63.486C37.7666 63.4713 37.8106 63.398 37.8986 63.266C38.0012 63.1487 38.1186 63.0167 38.2506 62.87C38.4559 62.6207 38.6466 62.3567 38.8226 62.078C38.9986 61.814 39.1379 61.5207 39.2406 61.198C39.2992 61.066 39.3286 60.9413 39.3286 60.824C39.3286 60.6773 39.2919 60.5747 39.2186 60.516C39.1599 60.4427 39.1306 60.3473 39.1306 60.23C39.1306 60.142 39.1379 60.076 39.1526 60.032C39.1966 59.9 39.2919 59.834 39.4386 59.834C39.5999 59.834 39.7099 59.834 39.7686 59.834C39.9446 59.834 40.0839 59.922 40.1866 60.098C40.2892 60.2593 40.3406 60.406 40.3406 60.538C40.3406 60.6847 40.2452 60.9047 40.0546 61.198C39.8639 61.4913 39.6292 61.8067 39.3506 62.144C39.0866 62.4813 38.8299 62.7893 38.5806 63.068C38.3312 63.3467 38.1406 63.53 38.0086 63.618ZM45.5707 62.012C44.808 62.012 44.104 61.88 43.4587 61.616C42.828 61.3667 42.322 60.978 41.9407 60.45C41.574 59.9073 41.3907 59.218 41.3907 58.382C41.3907 57.9127 41.4567 57.4067 41.5887 56.864C41.794 55.9987 42.1314 55.1333 42.6007 54.268C43.0847 53.4027 43.6567 52.5887 44.3167 51.826C44.9914 51.0633 45.7247 50.3887 46.5167 49.802C47.3087 49.2007 48.1227 48.7313 48.9587 48.394C49.8094 48.042 50.6527 47.866 51.4887 47.866C51.738 47.866 51.9947 47.888 52.2587 47.932C52.8454 48.0347 53.278 48.2547 53.5567 48.592C53.85 48.9147 53.9967 49.2887 53.9967 49.714C53.9967 50.2127 53.8354 50.7113 53.5127 51.21C53.19 51.7087 52.7647 52.1853 52.2367 52.64C51.7234 53.08 51.1587 53.476 50.5427 53.828C49.9414 54.18 49.3474 54.466 48.7607 54.686C48.174 54.906 47.6534 55.0307 47.1987 55.06C46.92 55.0747 46.7807 54.994 46.7807 54.818C46.7807 54.73 46.8247 54.642 46.9127 54.554C47.0154 54.4513 47.1547 54.3927 47.3307 54.378C48.4747 54.2753 49.538 53.9307 50.5207 53.344C51.518 52.7427 52.2807 51.9287 52.8087 50.902C52.926 50.682 53.014 50.462 53.0727 50.242C53.146 50.0073 53.1827 49.7873 53.1827 49.582C53.1827 49.2593 53.0874 48.988 52.8967 48.768C52.7207 48.5333 52.4054 48.416 51.9507 48.416C51.452 48.416 50.8654 48.57 50.1907 48.878C49.516 49.1713 48.8047 49.5893 48.0567 50.132C47.3234 50.6747 46.5974 51.32 45.8787 52.068C45.1747 52.8013 44.5367 53.608 43.9647 54.488C43.4074 55.3533 42.9747 56.27 42.6667 57.238C42.476 57.8247 42.3807 58.3673 42.3807 58.866C42.3807 59.7607 42.6887 60.4207 43.3047 60.846C43.9207 61.2567 44.72 61.462 45.7027 61.462C46.5534 61.462 47.4847 61.3153 48.4967 61.022C49.5234 60.7287 50.5207 60.2813 51.4887 59.68C52.4567 59.064 53.2707 58.2867 53.9307 57.348C53.9747 57.2893 54.026 57.26 54.0847 57.26C54.1434 57.26 54.1947 57.2893 54.2387 57.348C54.2974 57.4067 54.3047 57.4653 54.2607 57.524C53.498 58.58 52.618 59.438 51.6207 60.098C50.638 60.758 49.6187 61.242 48.5627 61.55C47.5067 61.858 46.5094 62.012 45.5707 62.012ZM59.6987 61.22C59.4493 61.22 59.2147 61.1613 58.9947 61.044C58.7893 60.9267 58.6353 60.7067 58.5327 60.384C58.4887 60.252 58.4667 60.0687 58.4667 59.834C58.4667 59.5113 58.5107 59.152 58.5987 58.756C58.6867 58.36 58.782 58.0227 58.8847 57.744C58.8113 57.7733 58.672 57.9053 58.4667 58.14C58.276 58.36 58.034 58.6313 57.7407 58.954C57.462 59.262 57.1467 59.5773 56.7947 59.9C56.4573 60.208 56.1053 60.4647 55.7387 60.67C55.372 60.8753 55.0127 60.978 54.6607 60.978C54.426 60.978 54.1767 60.912 53.9127 60.78C53.6487 60.6333 53.436 60.45 53.2747 60.23C53.0547 59.9367 52.9447 59.636 52.9447 59.328C52.9447 58.932 53.0767 58.5213 53.3407 58.096C53.6193 57.6707 53.9713 57.26 54.3967 56.864C54.8367 56.4533 55.2987 56.0867 55.7827 55.764C56.2813 55.4267 56.7507 55.148 57.1907 54.928C57.6453 54.6933 58.012 54.5393 58.2907 54.466C58.584 54.378 58.914 54.334 59.2807 54.334C59.486 54.334 59.6987 54.3633 59.9187 54.422C60.1387 54.466 60.322 54.5467 60.4687 54.664C60.586 54.7227 60.6813 54.8033 60.7547 54.906C60.828 55.0087 60.8647 55.1187 60.8647 55.236C60.8647 55.3533 60.8133 55.39 60.7107 55.346C60.5933 55.17 60.432 55.06 60.2267 55.016C60.036 54.9573 59.838 54.928 59.6327 54.928C59.046 54.928 58.4007 55.1187 57.6967 55.5C56.9927 55.8813 56.362 56.3287 55.8047 56.842C55.6287 56.9887 55.3867 57.2453 55.0787 57.612C54.7853 57.964 54.514 58.3527 54.2647 58.778C54.0153 59.2033 53.8907 59.592 53.8907 59.944C53.8907 60.1347 53.942 60.3033 54.0447 60.45C54.1033 60.5527 54.1987 60.604 54.3307 60.604C54.536 60.604 54.8073 60.494 55.1447 60.274C55.4967 60.054 55.856 59.79 56.2227 59.482C56.5893 59.1593 56.9193 58.8513 57.2127 58.558C57.5207 58.2647 57.7407 58.052 57.8727 57.92C57.946 57.8467 58.0853 57.7 58.2907 57.48C58.5107 57.2453 58.7453 56.996 58.9947 56.732C59.244 56.468 59.464 56.2407 59.6547 56.05C59.86 55.8593 59.992 55.764 60.0507 55.764C60.124 55.764 60.2413 55.786 60.4027 55.83C60.5787 55.8593 60.7253 55.9107 60.8427 55.984C60.96 56.0573 60.982 56.1527 60.9087 56.27C60.5273 56.8273 60.2193 57.414 59.9847 58.03C59.7647 58.6313 59.6327 59.108 59.5887 59.46C59.574 59.5187 59.5667 59.5773 59.5667 59.636C59.5667 59.68 59.5667 59.7313 59.5667 59.79C59.5667 60.3767 59.772 60.67 60.1827 60.67C60.4027 60.67 60.696 60.538 61.0627 60.274C61.4293 60.01 61.8033 59.6947 62.1847 59.328C62.566 58.9613 62.9107 58.6093 63.2187 58.272C63.5413 57.92 63.7613 57.656 63.8787 57.48C63.9227 57.436 63.9667 57.414 64.0107 57.414C64.0693 57.414 64.1207 57.4433 64.1647 57.502C64.2087 57.546 64.2087 57.6047 64.1647 57.678C64.0033 57.942 63.7687 58.2573 63.4607 58.624C63.1527 58.9907 62.808 59.3573 62.4267 59.724C62.0453 60.0907 61.6713 60.406 61.3047 60.67C61.114 60.8167 60.872 60.9413 60.5787 61.044C60.2853 61.1613 59.992 61.22 59.6987 61.22ZM62.6054 61.286C62.5027 61.286 62.4734 61.2347 62.5174 61.132C62.5614 61.044 62.6421 60.846 62.7594 60.538C62.8767 60.2153 63.0087 59.834 63.1554 59.394C63.3167 58.954 63.4781 58.4993 63.6394 58.03C63.8007 57.5607 63.9474 57.1207 64.0794 56.71C64.2261 56.2993 64.3434 55.9767 64.4314 55.742C64.4607 55.654 64.4901 55.5293 64.5194 55.368C64.5487 55.192 64.6074 55.038 64.6954 54.906C64.7981 54.7593 64.9667 54.686 65.2014 54.686C65.6414 54.686 65.8614 54.7887 65.8614 54.994C65.8614 55.0673 65.8247 55.192 65.7514 55.368C65.5754 55.764 65.3847 56.2187 65.1794 56.732C64.9741 57.2453 64.7907 57.7293 64.6294 58.184C64.4681 58.6387 64.3434 58.9907 64.2554 59.24C64.4021 59.0347 64.6367 58.7413 64.9594 58.36C65.2967 57.9787 65.6707 57.568 66.0814 57.128C66.4921 56.688 66.9174 56.2627 67.3574 55.852C67.8121 55.4413 68.2301 55.1113 68.6114 54.862C69.0074 54.598 69.3447 54.466 69.6234 54.466C69.9754 54.466 70.1514 54.6567 70.1514 55.038C70.1514 55.17 70.1147 55.368 70.0414 55.632C69.9094 55.9987 69.7407 56.358 69.5354 56.71C69.3301 57.0473 69.1467 57.4067 68.9854 57.788C68.7067 58.4773 68.5454 59.0347 68.5014 59.46C68.4867 59.5187 68.4794 59.5773 68.4794 59.636C68.4794 59.68 68.4794 59.7313 68.4794 59.79C68.4794 60.3767 68.6774 60.67 69.0734 60.67C69.2934 60.67 69.5867 60.538 69.9534 60.274C70.3201 60.01 70.6941 59.6947 71.0754 59.328C71.4714 58.9613 71.8234 58.6093 72.1314 58.272C72.4394 57.92 72.6521 57.656 72.7694 57.48C72.8134 57.436 72.8574 57.414 72.9014 57.414C72.9601 57.414 73.0041 57.436 73.0334 57.48C73.0774 57.524 73.0847 57.5827 73.0554 57.656C72.9234 57.9053 72.6961 58.2207 72.3734 58.602C72.0654 58.9687 71.7207 59.3427 71.3394 59.724C70.9581 60.0907 70.5841 60.406 70.2174 60.67C69.9974 60.8167 69.7261 60.9487 69.4034 61.066C69.0807 61.1833 68.7581 61.2347 68.4354 61.22C68.0247 61.176 67.7314 61.0367 67.5554 60.802C67.3794 60.5527 67.2914 60.2593 67.2914 59.922C67.2914 59.526 67.3647 59.108 67.5114 58.668C67.6727 58.2133 67.8487 57.788 68.0394 57.392C68.2301 56.996 68.3841 56.6953 68.5014 56.49C68.6187 56.2553 68.6774 56.072 68.6774 55.94C68.6774 55.8227 68.6261 55.764 68.5234 55.764C68.4207 55.764 68.2667 55.83 68.0614 55.962C67.8561 56.094 67.5774 56.3213 67.2254 56.644C66.9027 56.9227 66.5581 57.2893 66.1914 57.744C65.8247 58.184 65.4654 58.6387 65.1134 59.108C64.7761 59.5773 64.4754 59.9807 64.2114 60.318C63.9621 60.6553 63.7861 60.8533 63.6834 60.912C63.6101 60.956 63.4414 61.0293 63.1774 61.132C62.9281 61.2347 62.7374 61.286 62.6054 61.286ZM78.3199 63.398C77.9386 63.3393 77.6673 63.156 77.5059 62.848C77.3446 62.54 77.2639 62.1587 77.2639 61.704C77.2639 61.1613 77.3373 60.5747 77.4839 59.944C77.6453 59.3133 77.8286 58.7193 78.0339 58.162C78.2393 57.6047 78.4006 57.1793 78.5179 56.886C78.1806 57.282 77.7919 57.7147 77.3519 58.184C76.9266 58.6533 76.4793 59.1007 76.0099 59.526C75.5406 59.9513 75.0859 60.3033 74.6459 60.582C74.2206 60.846 73.8466 60.978 73.5239 60.978C73.2893 60.978 73.0399 60.912 72.7759 60.78C72.5119 60.6333 72.2993 60.45 72.1379 60.23C71.9179 59.9367 71.8079 59.636 71.8079 59.328C71.8079 58.932 71.9399 58.5213 72.2039 58.096C72.4826 57.6707 72.8346 57.26 73.2599 56.864C73.6999 56.4533 74.1619 56.0867 74.6459 55.764C75.1446 55.4267 75.6139 55.148 76.0539 54.928C76.5086 54.6933 76.8753 54.5393 77.1539 54.466C77.3006 54.4367 77.4546 54.4073 77.6159 54.378C77.7773 54.3487 77.9459 54.334 78.1219 54.334C78.3419 54.334 78.5619 54.3633 78.7819 54.422C79.0019 54.466 79.1853 54.5467 79.3319 54.664L79.4199 54.73C79.7719 53.9233 80.1606 53.1093 80.5859 52.288C81.0113 51.452 81.4659 50.6893 81.9499 50C82.4339 49.3107 82.9473 48.7607 83.4899 48.35C84.0326 47.9247 84.5973 47.712 85.1839 47.712C85.2573 47.712 85.3306 47.7193 85.4039 47.734C85.4773 47.734 85.5433 47.7413 85.6019 47.756C85.9686 47.8293 86.2253 47.9613 86.3719 48.152C86.5333 48.328 86.6139 48.5407 86.6139 48.79C86.6139 48.966 86.5773 49.1567 86.5039 49.362C86.4453 49.5527 86.3573 49.7433 86.2399 49.934C85.9173 50.506 85.4919 51.0707 84.9639 51.628C84.4506 52.1853 83.8859 52.728 83.2699 53.256C82.6539 53.7693 82.0379 54.268 81.4219 54.752C80.8206 55.236 80.2706 55.6907 79.7719 56.116C79.5519 56.6293 79.3319 57.2307 79.1119 57.92C78.8919 58.6093 78.7086 59.196 78.5619 59.68C78.4739 60.032 78.4006 60.362 78.3419 60.67C78.2979 60.978 78.2759 61.264 78.2759 61.528C78.2759 62.012 78.3639 62.408 78.5399 62.716C78.6866 62.9507 78.8699 63.068 79.0899 63.068C79.2513 63.068 79.3979 63.0093 79.5299 62.892C79.5886 62.8627 79.6399 62.826 79.6839 62.782C79.7426 62.738 79.8086 62.694 79.8819 62.65C79.9699 62.606 80.0433 62.584 80.1019 62.584C80.2046 62.584 80.2119 62.6647 80.1239 62.826C80.0799 62.87 80.0286 62.9213 79.9699 62.98C79.9113 63.0533 79.8453 63.1267 79.7719 63.2C79.6693 63.2733 79.5153 63.332 79.3099 63.376C79.1046 63.42 78.8993 63.442 78.6939 63.442C78.6353 63.442 78.5693 63.4347 78.4959 63.42C78.4373 63.42 78.3786 63.4127 78.3199 63.398ZM80.4319 54.862C81.0186 54.466 81.6566 53.9747 82.3459 53.388C83.0353 52.7867 83.6806 52.1487 84.2819 51.474C84.8833 50.7847 85.3453 50.132 85.6679 49.516C85.8586 49.164 85.9539 48.8853 85.9539 48.68C85.9539 48.4307 85.8439 48.306 85.6239 48.306C85.4186 48.306 85.1473 48.4233 84.8099 48.658C83.8273 49.4207 82.9986 50.33 82.3239 51.386C81.6493 52.4273 81.0186 53.586 80.4319 54.862ZM72.9079 60.45C72.9813 60.538 73.0766 60.582 73.1939 60.582C73.4139 60.582 73.6706 60.4867 73.9639 60.296C74.2719 60.1053 74.4773 59.9587 74.5799 59.856C75.3279 59.2547 76.0759 58.6093 76.8239 57.92C77.5866 57.216 78.2979 56.512 78.9579 55.808C79.0166 55.676 79.0679 55.5513 79.1119 55.434C79.1559 55.302 79.2073 55.1773 79.2659 55.06C79.0459 54.972 78.7893 54.928 78.4959 54.928C77.9093 54.928 77.2639 55.1187 76.5599 55.5C75.8559 55.8813 75.2253 56.3287 74.6679 56.842C74.4919 56.9887 74.2499 57.2453 73.9419 57.612C73.6486 57.964 73.3773 58.3527 73.1279 58.778C72.8786 59.2033 72.7539 59.592 72.7539 59.944C72.7539 60.1347 72.8053 60.3033 72.9079 60.45ZM79.7285 69.074C79.5525 69.03 79.3985 68.986 79.2665 68.942C78.9878 68.7953 78.7898 68.6267 78.6725 68.436C78.5551 68.26 78.4965 68.0693 78.4965 67.864C78.4965 67.5267 78.6138 67.16 78.8485 66.764C79.0685 66.3827 79.3618 65.9867 79.7285 65.576C80.0951 65.136 80.5571 64.6887 81.1145 64.234C81.6865 63.7793 82.2805 63.3393 82.8965 62.914C83.5125 62.5033 84.0551 62.144 84.5245 61.836C84.7738 61.3227 85.0305 60.7727 85.2945 60.186C85.5731 59.5993 85.8371 59.0347 86.0865 58.492C86.3358 57.9347 86.5485 57.4287 86.7245 56.974C86.9151 56.5193 87.0545 56.1673 87.1425 55.918C86.9078 56.1967 86.6365 56.5487 86.3285 56.974C86.0205 57.3847 85.6831 57.8247 85.3165 58.294C84.9498 58.7487 84.5685 59.1813 84.1725 59.592C83.7911 60.0027 83.3951 60.34 82.9845 60.604C82.5738 60.8533 82.1705 60.978 81.7745 60.978C81.1878 60.978 80.7771 60.8313 80.5425 60.538C80.3225 60.23 80.2125 59.8707 80.2125 59.46C80.2125 59.1667 80.2491 58.8733 80.3225 58.58C80.4105 58.2867 80.5205 58.0153 80.6525 57.766C80.7405 57.59 80.8798 57.3553 81.0705 57.062C81.2611 56.7687 81.4811 56.468 81.7305 56.16C81.9798 55.852 82.2291 55.5953 82.4785 55.39C82.7425 55.1847 82.9918 55.082 83.2265 55.082C83.5051 55.082 83.7178 55.1847 83.8645 55.39C84.0111 55.5807 84.0258 55.7127 83.9085 55.786C83.6738 55.9473 83.3805 56.1967 83.0285 56.534C82.6911 56.8567 82.3538 57.2307 82.0165 57.656C81.9285 57.7733 81.8185 57.9567 81.6865 58.206C81.5691 58.4553 81.4591 58.7267 81.3565 59.02C81.2538 59.2987 81.2025 59.5553 81.2025 59.79C81.2025 59.8927 81.2171 59.9953 81.2465 60.098C81.2758 60.186 81.3271 60.252 81.4005 60.296C81.5178 60.384 81.6498 60.428 81.7965 60.428C82.0018 60.428 82.2291 60.362 82.4785 60.23C82.7425 60.098 82.9918 59.9293 83.2265 59.724C84.0478 58.932 84.7811 58.1033 85.4265 57.238C86.0718 56.3727 86.7538 55.5147 87.4725 54.664C87.5165 54.5173 87.6411 54.444 87.8465 54.444C88.0811 54.444 88.3231 54.5173 88.5725 54.664C88.8365 54.796 88.9465 54.906 88.9025 54.994C88.7705 55.2873 88.5945 55.676 88.3745 56.16C88.1691 56.644 87.9418 57.1647 87.6925 57.722C87.4431 58.2793 87.1938 58.8367 86.9445 59.394C86.6951 59.9367 86.4678 60.428 86.2625 60.868C86.4385 60.78 86.7538 60.56 87.2085 60.208C87.6631 59.856 88.1618 59.4307 88.7045 58.932C89.2471 58.4187 89.7385 57.8907 90.1785 57.348C90.2665 57.26 90.3325 57.216 90.3765 57.216C90.4645 57.216 90.5085 57.2747 90.5085 57.392C90.5085 57.4947 90.4645 57.612 90.3765 57.744C90.1565 58.0373 89.8485 58.382 89.4525 58.778C89.0711 59.174 88.6531 59.5773 88.1985 59.988C87.7585 60.384 87.3258 60.7433 86.9005 61.066C86.4751 61.4033 86.1085 61.66 85.8005 61.836C85.3458 62.804 84.9058 63.7133 84.4805 64.564C84.0551 65.4293 83.6665 66.126 83.3145 66.654C83.0798 67.0207 82.7938 67.3947 82.4565 67.776C82.1191 68.1573 81.7525 68.4727 81.3565 68.722C80.9605 68.986 80.5425 69.118 80.1025 69.118C80.0438 69.118 79.9851 69.1107 79.9265 69.096C79.8678 69.096 79.8018 69.0887 79.7285 69.074ZM79.7945 68.59C79.9118 68.59 80.0511 68.5533 80.2125 68.48C80.3885 68.4067 80.5718 68.2893 80.7625 68.128C81.3198 67.6733 81.7891 67.138 82.1705 66.522C82.5518 65.9207 82.8891 65.2827 83.1825 64.608C83.4905 63.9333 83.7985 63.288 84.1065 62.672C83.5345 63.0973 82.8891 63.596 82.1705 64.168C81.4518 64.7547 80.7991 65.334 80.2125 65.906C79.8605 66.258 79.6038 66.6027 79.4425 66.94C79.2811 67.292 79.2005 67.6 79.2005 67.864C79.2005 68.348 79.3985 68.59 79.7945 68.59Z" fill="#0A41CD"/>
<defs>
<linearGradient id="paint0_linear_151_89" x1="44.5" y1="18" x2="44.5" y2="42" gradientUnits="userSpaceOnUse">
<stop stop-color="#8515CD"/>
<stop offset="1" stop-color="#0A41CD"/>
</linearGradient>
</defs>
</svg>
