<svg width="18" height="20" viewBox="0 0 18 20" fill="none" xmlns="http://www.w3.org/2000/svg">
<path d="M15.1324 14V14.3233L15.3674 14.5453L17.1724 16.25H0.827591L2.63258 14.5453L2.86761 14.3233V14V8.5C2.86761 5.83566 4.8647 3.51588 7.56971 2.93313L8.16176 2.80558V2.19995V1.5C8.16176 1.10394 8.47314 0.75 9 0.75C9.52686 0.75 9.83824 1.10393 9.83824 1.5V2.19995V2.80558L10.4303 2.93313C13.1352 3.51588 15.1324 5.83567 15.1324 8.5V14ZM10.0896 18.75C9.84581 19.0468 9.45916 19.25 9 19.25C8.54083 19.25 8.15417 19.0468 7.9104 18.75H10.0896Z" stroke="white" stroke-width="1.5"/>
</svg>
