<svg width="12" height="15" viewBox="0 0 12 15" fill="none" xmlns="http://www.w3.org/2000/svg">
<path d="M6 0.5C6.78408 0.5 7.54365 0.833408 8.10935 1.43951C8.67613 2.04677 9 2.87734 9 3.75C9 4.62266 8.67613 5.45323 8.10935 6.06049C7.54365 6.66659 6.78408 7 6 7C5.21592 7 4.45635 6.66659 3.89065 6.06049C3.32387 5.45323 3 4.62266 3 3.75C3 2.87734 3.32387 2.04677 3.89065 1.43951C4.45635 0.833408 5.21592 0.5 6 0.5ZM6.00033 14.5H6.0001H6.00008H5.99992H5.9999H5.99967L5.99737 14.5L5.98697 14.5L5.94391 14.4996C5.90564 14.4991 5.84873 14.4983 5.77584 14.4965C5.63 14.4929 5.42062 14.4858 5.16899 14.4715C4.66406 14.4428 3.99663 14.3857 3.33402 14.2727C2.66312 14.1584 2.03486 13.9928 1.58702 13.7638C1.1231 13.5266 1 13.3044 1 13.125C1 11.1696 2.66982 8.9375 6 8.9375C9.33018 8.9375 11 11.1696 11 13.125C11 13.3044 10.8769 13.5266 10.413 13.7638C9.96514 13.9928 9.33688 14.1584 8.66598 14.2727C8.00337 14.3857 7.33594 14.4428 6.83101 14.4715C6.57938 14.4858 6.37 14.4929 6.22416 14.4965C6.15127 14.4983 6.09436 14.4991 6.05609 14.4996L6.01303 14.5L6.00263 14.5L6.00033 14.5Z" stroke="#717676"/>
</svg>
